<?xml version="1.0" standalone="no"?>
<!DOCTYPE svg PUBLIC "-//W3C//DTD SVG 20010904//EN"
 "http://www.w3.org/TR/2001/REC-SVG-20010904/DTD/svg10.dtd">
<svg version="1.0" xmlns="http://www.w3.org/2000/svg"
 width="380.000000pt" height="95.000000pt" viewBox="0 0 380.000000 95.000000"
 preserveAspectRatio="xMidYMid meet">

<g transform="translate(0.000000,95.000000) scale(0.100000,-0.100000)"
fill="#000000" stroke="none">
<path d="M265 670 c-4 -6 18 -10 59 -10 l65 0 3 -107 3 -108 28 -3 c27 -3 27
-4 27 -83 0 -46 4 -79 10 -79 6 0 10 37 10 90 l0 90 -30 0 -30 0 0 110 0 110
-69 0 c-39 0 -73 -4 -76 -10z"/>
<path d="M455 670 c-4 -6 13 -10 44 -10 28 0 51 5 51 10 0 6 -20 10 -44 10
-25 0 -48 -4 -51 -10z"/>
<path d="M570 670 c0 -5 5 -10 11 -10 5 0 7 5 4 10 -3 6 -8 10 -11 10 -2 0 -4
-4 -4 -10z"/>
<path d="M1380 650 c0 -24 -4 -30 -21 -30 -12 0 -41 -19 -64 -43 -54 -53 -67
-113 -41 -181 20 -51 38 -69 90 -91 67 -28 144 4 181 76 34 64 10 170 -48 213
-42 31 -42 11 -1 -27 35 -32 38 -39 41 -98 5 -78 -18 -122 -74 -146 -53 -22
-101 -11 -140 31 -76 82 -44 219 58 246 33 9 39 15 39 37 0 23 3 25 32 19 122
-24 184 -196 113 -311 -41 -66 -102 -99 -170 -91 -55 6 -84 24 -129 80 -26 32
-31 47 -34 106 -5 84 21 148 75 184 19 13 30 27 24 30 -15 10 -82 -54 -102
-99 -26 -56 -25 -147 2 -202 63 -129 226 -158 320 -56 107 114 80 291 -54 358
-71 35 -97 34 -97 -5z"/>
<path d="M2020 670 c0 -5 5 -10 11 -10 5 0 7 5 4 10 -3 6 -8 10 -11 10 -2 0
-4 -4 -4 -10z"/>
<path d="M2920 561 l0 -121 30 0 29 0 4 -87 3 -88 2 98 2 97 -25 0 -25 0 0
104 c0 59 -4 108 -10 111 -6 4 -10 -37 -10 -114z"/>
<path d="M3330 650 c0 -22 -5 -30 -17 -30 -32 0 -82 -39 -103 -79 -37 -74 -21
-163 38 -213 147 -123 325 99 195 243 -19 21 -42 39 -50 39 -7 0 4 -17 26 -38
64 -61 68 -151 10 -217 -56 -63 -148 -56 -196 16 -22 33 -25 47 -21 99 3 49 9
65 33 90 16 17 46 35 67 41 31 8 38 14 38 34 0 30 11 31 66 5 152 -74 139
-309 -20 -375 -83 -35 -173 4 -218 94 -47 92 -33 180 39 249 51 49 51 68 -1
29 -96 -74 -110 -232 -29 -326 56 -66 115 -87 193 -70 95 21 160 109 160 216
-1 97 -49 173 -132 207 -59 25 -78 21 -78 -14z"/>
<path d="M730 570 c0 -60 4 -100 10 -100 6 0 10 40 10 100 0 60 -4 100 -10
100 -6 0 -10 -40 -10 -100z"/>
<path d="M780 570 l0 -100 95 0 95 0 0 -100 c0 -60 4 -100 10 -100 6 0 10 43
10 110 l0 110 -95 0 -95 0 0 90 c0 53 -4 90 -10 90 -6 0 -10 -40 -10 -100z"/>
<path d="M970 595 c0 -43 4 -75 10 -75 6 0 10 32 10 75 0 43 -4 75 -10 75 -6
0 -10 -32 -10 -75z"/>
<path d="M1330 660 c0 -5 5 -10 10 -10 6 0 10 5 10 10 0 6 -4 10 -10 10 -5 0
-10 -4 -10 -10z"/>
<path d="M1772 663 l67 -4 3 -107 3 -107 28 -3 c27 -3 27 -4 27 -83 0 -46 4
-79 10 -79 6 0 10 37 10 90 l0 90 -30 0 -30 0 0 105 0 105 -77 -2 -78 -2 67
-3z"/>
<path d="M1923 663 c15 -2 39 -2 55 0 15 2 2 4 -28 4 -30 0 -43 -2 -27 -4z"/>
<path d="M2194 570 c0 -58 1 -81 3 -52 2 28 2 76 0 105 -2 28 -3 5 -3 -53z"/>
<path d="M2240 570 l0 -100 95 0 95 0 0 -102 c0 -70 3 -99 10 -92 7 7 10 51 8
110 l-3 99 -92 3 -93 3 0 89 c0 53 -4 90 -10 90 -6 0 -10 -40 -10 -100z"/>
<path d="M2430 595 c0 -43 4 -75 10 -75 6 0 10 32 10 75 0 43 -4 75 -10 75 -6
0 -10 -32 -10 -75z"/>
<path d="M3280 659 c0 -5 5 -7 10 -4 6 3 10 8 10 11 0 2 -4 4 -10 4 -5 0 -10
-5 -10 -11z"/>
<path d="M1030 436 c0 -124 4 -196 10 -196 14 0 14 377 0 385 -7 4 -10 -62
-10 -189z"/>
<path d="M2494 435 c0 -110 2 -156 3 -103 2 53 2 143 0 200 -1 57 -3 13 -3
-97z"/>
<path d="M2983 565 c0 -38 2 -53 4 -32 2 20 2 52 0 70 -2 17 -4 1 -4 -38z"/>
<path d="M270 610 c0 -5 20 -10 45 -10 25 0 45 5 45 10 0 6 -20 10 -45 10 -25
0 -45 -4 -45 -10z"/>
<path d="M450 560 c0 -33 4 -60 10 -60 6 0 10 23 10 50 l0 50 60 0 c33 0 60 4
60 10 0 6 -30 10 -70 10 l-70 0 0 -60z"/>
<path d="M1715 610 c-4 -6 13 -10 44 -10 28 0 51 5 51 10 0 6 -20 10 -44 10
-25 0 -48 -4 -51 -10z"/>
<path d="M1900 560 c0 -33 4 -60 10 -60 6 0 10 23 10 50 l0 50 55 0 c30 0 55
5 55 10 0 6 -28 10 -65 10 l-65 0 0 -60z"/>
<path d="M730 335 c0 -57 4 -95 10 -95 6 0 10 35 10 85 l0 85 95 0 c57 0 95 4
95 10 0 6 -42 10 -105 10 l-105 0 0 -95z"/>
<path d="M2192 333 l2 -98 3 88 4 87 94 0 c57 0 95 4 95 10 0 6 -40 10 -100
10 l-100 0 2 -97z"/>
<path d="M390 315 c0 -50 4 -85 10 -85 6 0 10 35 10 85 0 50 -4 85 -10 85 -6
0 -10 -35 -10 -85z"/>
<path d="M1840 315 c0 -50 4 -85 10 -85 6 0 10 35 10 85 0 50 -4 85 -10 85 -6
0 -10 -35 -10 -85z"/>
<path d="M2920 314 c0 -54 4 -83 10 -79 6 3 10 42 10 86 0 46 -4 79 -10 79 -6
0 -10 -35 -10 -86z"/>
<path d="M780 311 c0 -39 5 -73 10 -76 6 -4 10 22 10 69 0 44 -4 76 -10 76 -6
0 -10 -30 -10 -69z"/>
<path d="M2240 311 c0 -39 5 -73 10 -76 6 -4 10 22 10 69 0 44 -4 76 -10 76
-6 0 -10 -30 -10 -69z"/>
<path d="M2678 270 c4 -38 6 -40 38 -40 33 0 34 1 34 40 0 40 0 40 -38 40
l-38 0 4 -40z m52 0 c0 -13 -7 -20 -20 -20 -13 0 -20 7 -20 20 0 13 7 20 20
20 13 0 20 -7 20 -20z"/>
<path d="M970 250 c0 -5 5 -10 10 -10 6 0 10 5 10 10 0 6 -4 10 -10 10 -5 0
-10 -4 -10 -10z"/>
<path d="M2430 250 c0 -5 5 -10 11 -10 5 0 7 5 4 10 -3 6 -8 10 -11 10 -2 0
-4 -4 -4 -10z"/>
</g>
</svg>
