<svg width="420" height="120" viewBox="0 0 420 120" fill="none" xmlns="http://www.w3.org/2000/svg">
<rect width="420" height="120" fill="white"/>
<rect width="420" height="120" fill="url(#paint0_linear_8_33)"/>
<path d="M61.2358 80.1339C61.2358 80.8166 60.8944 81.1579 60.2118 81.1579C59.9131 81.1579 59.6571 81.0726 59.4438 80.9019C59.2304 80.6886 59.1238 80.4326 59.1238 80.1339V64.7099C59.1238 64.3686 59.2304 64.1126 59.4438 63.9419C59.6571 63.7286 59.9131 63.6219 60.2118 63.6219C60.8944 63.6219 61.2358 63.9846 61.2358 64.7099V80.1339ZM64.8838 53.1899V43.2059C64.8838 42.9072 64.9904 42.6512 65.2038 42.4379C65.4171 42.2246 65.6731 42.1179 65.9718 42.1179H77.8118C78.1531 42.1179 78.4091 42.2246 78.5798 42.4379C78.7931 42.6512 78.8998 42.9072 78.8998 43.2059C78.8998 43.8886 78.5371 44.2299 77.8118 44.2299H66.9958V53.1899C66.9958 53.8726 66.6544 54.2139 65.9718 54.2139C65.6731 54.2139 65.4171 54.1286 65.2038 53.9579C64.9904 53.7446 64.8838 53.4886 64.8838 53.1899ZM55.2198 42.1179C55.5184 42.1179 55.7531 42.2246 55.9238 42.4379C56.1371 42.6512 56.2438 42.9072 56.2438 43.2059C56.2438 43.8886 55.9024 44.2299 55.2198 44.2299H47.4118C46.6864 44.2299 46.3238 43.8886 46.3238 43.2059C46.3238 42.9072 46.4091 42.6512 46.5798 42.4379C46.7931 42.2246 47.0704 42.1179 47.4118 42.1179H55.2198ZM61.1718 37.5739V57.7979H65.9718C66.2704 57.7979 66.5051 57.9046 66.6758 58.1179C66.8891 58.3312 66.9958 58.5872 66.9958 58.8859V75.2059C66.9958 75.9312 66.6544 76.2939 65.9718 76.2939C65.6731 76.2939 65.4171 76.2086 65.2038 76.0379C64.9904 75.8246 64.8838 75.5472 64.8838 75.2059V59.9099H60.1478C59.8491 59.9099 59.5931 59.8246 59.3798 59.6539C59.1664 59.4406 59.0598 59.1846 59.0598 58.8859V38.5979H47.4118C46.6864 38.5979 46.3238 38.2566 46.3238 37.5739C46.3238 36.8486 46.6864 36.4859 47.4118 36.4859H60.1478C60.8304 36.4859 61.1718 36.8486 61.1718 37.5739ZM65.9718 36.4859H74.2918C74.9744 36.4859 75.3158 36.8486 75.3158 37.5739C75.3158 38.2566 74.9744 38.5979 74.2918 38.5979H65.9718C65.6731 38.5979 65.4171 38.5126 65.2038 38.3419C64.9904 38.1286 64.8838 37.8726 64.8838 37.5739C64.8838 37.2326 64.9904 36.9766 65.2038 36.8059C65.4171 36.5926 65.6731 36.4859 65.9718 36.4859ZM78.1958 36.4219C78.5371 36.5072 78.7718 36.6992 78.8998 36.9979C79.0278 37.2966 79.0491 37.5952 78.9638 37.8939H78.8998C78.7718 38.4486 78.4091 38.7259 77.8118 38.7259C77.3424 38.5552 77.0224 38.3419 76.8518 38.0859C76.6811 37.7872 76.6384 37.4886 76.7238 37.1899L76.7878 37.1259C76.9158 36.6139 77.2784 36.3579 77.8758 36.3579C78.0464 36.3579 78.1531 36.3792 78.1958 36.4219ZM98.2848 66.8859C98.2848 66.2032 98.6474 65.8619 99.3728 65.8619C100.055 65.8619 100.397 66.2032 100.397 66.8859V79.8779C100.397 80.5606 100.055 80.9019 99.3728 80.9019C98.6474 80.9019 98.2848 80.5606 98.2848 79.8779V66.8859ZM117.997 52.2939C117.314 52.2939 116.973 51.9526 116.973 51.2699V37.7019C116.973 37.4032 117.058 37.1472 117.229 36.9339C117.442 36.7206 117.698 36.6139 117.997 36.6139C118.338 36.6139 118.594 36.7206 118.765 36.9339C118.978 37.1472 119.085 37.4032 119.085 37.7019V51.2699C119.085 51.9526 118.722 52.2939 117.997 52.2939ZM123.693 80.7099C123.394 80.7099 123.138 80.6032 122.925 80.3899C122.754 80.1766 122.669 79.9206 122.669 79.6219V42.1179C122.669 41.4352 123.01 41.0939 123.693 41.0939C123.991 41.0939 124.247 41.2006 124.461 41.4139C124.674 41.5846 124.781 41.8192 124.781 42.1179V79.6219C124.781 79.9206 124.674 80.1766 124.461 80.3899C124.247 80.6032 123.991 80.7099 123.693 80.7099ZM99.3728 57.3499C99.0314 57.3499 98.7541 57.2432 98.5408 57.0299C98.3701 56.8166 98.2848 56.5606 98.2848 56.2619V37.6379C98.2848 36.9552 98.6474 36.6139 99.3728 36.6139C100.055 36.6139 100.397 36.9552 100.397 37.6379V55.2379H117.997C118.722 55.2379 119.085 55.5792 119.085 56.2619V75.9739C119.085 76.2726 118.978 76.5286 118.765 76.7419C118.594 76.9552 118.338 77.0619 117.997 77.0619C117.698 77.0619 117.442 76.9552 117.229 76.7419C117.058 76.5286 116.973 76.2726 116.973 75.9739V57.3499H99.3728ZM93.6768 57.2859C93.3781 57.2859 93.1221 57.2006 92.9088 57.0299C92.6954 56.8166 92.5888 56.5606 92.5888 56.2619V37.6379C92.5888 37.3392 92.6954 37.1046 92.9088 36.9339C93.1221 36.7206 93.3781 36.6139 93.6768 36.6139C94.3594 36.6139 94.7008 36.9552 94.7008 37.6379V56.2619C94.7008 56.9446 94.3594 57.2859 93.6768 57.2859ZM93.6768 80.7099C93.3781 80.7099 93.1221 80.6032 92.9088 80.3899C92.6954 80.1766 92.5888 79.9206 92.5888 79.6219V62.0859C92.5888 61.7872 92.6954 61.5312 92.9088 61.3179C93.1221 61.1046 93.3781 60.9979 93.6768 60.9979H112.941C113.239 60.9979 113.474 61.1046 113.645 61.3179C113.858 61.5312 113.965 61.7872 113.965 62.0859C113.965 62.7686 113.623 63.1099 112.941 63.1099H94.7008V79.6219C94.7008 79.9206 94.5941 80.1766 94.3808 80.3899C94.2101 80.6032 93.9754 80.7099 93.6768 80.7099ZM118.445 78.4059C118.743 78.5339 118.957 78.7472 119.085 79.0459C119.213 79.3019 119.234 79.5792 119.149 79.8779V79.9419C118.935 80.4539 118.573 80.7099 118.061 80.7099C117.591 80.5819 117.271 80.3686 117.101 80.0699C116.93 79.7712 116.887 79.4726 116.973 79.1739C117.101 78.6192 117.463 78.3419 118.061 78.3419C118.146 78.3419 118.21 78.3632 118.253 78.4059C118.295 78.4059 118.359 78.4059 118.445 78.4059ZM138.482 58.5019C138.482 56.4539 138.738 54.4272 139.25 52.4219C139.805 50.4166 140.573 48.5392 141.554 46.7899C142.578 44.9979 143.816 43.3766 145.266 41.9259C146.717 40.4752 148.36 39.2806 150.194 38.3419C150.28 38.2566 150.45 38.2139 150.706 38.2139C151.09 38.2139 151.389 38.3846 151.602 38.7259C151.773 39.0246 151.794 39.3232 151.666 39.6219C151.581 39.8779 151.41 40.0699 151.154 40.1979C149.49 41.0939 147.997 42.2032 146.674 43.5259C145.352 44.8059 144.242 46.2566 143.346 47.8779C142.45 49.4566 141.768 51.1632 141.298 52.9979C140.829 54.7899 140.594 56.6246 140.594 58.5019C140.594 61.1046 141.042 63.6432 141.938 66.1179C142.877 68.5499 144.157 70.7046 145.778 72.5819C147.442 74.4592 149.405 75.9739 151.666 77.1259C153.97 78.2352 156.488 78.7899 159.218 78.7899C161.949 78.7899 164.445 78.2352 166.706 77.1259C168.968 75.9739 170.909 74.4592 172.53 72.5819C174.194 70.6619 175.474 68.4859 176.37 66.0539C177.309 63.6219 177.778 61.1046 177.778 58.5019C177.778 55.9846 177.352 53.5526 176.498 51.2059C175.645 48.8166 174.45 46.7046 172.914 44.8699C171.378 42.9926 169.522 41.4566 167.346 40.2619C165.213 39.0672 162.845 38.3846 160.242 38.2139V42.7579C160.242 43.4406 159.901 43.7819 159.218 43.7819C157.256 43.7819 155.464 44.1872 153.842 44.9979C152.221 45.8086 150.834 46.8966 149.682 48.2619C148.573 49.6272 147.698 51.1846 147.058 52.9339C146.461 54.6832 146.162 56.4966 146.162 58.3739C146.162 60.2086 146.461 62.0006 147.058 63.7499C147.698 65.4992 148.594 67.0566 149.746 68.4219C150.898 69.7872 152.264 70.8752 153.842 71.6859C155.464 72.4966 157.256 72.9019 159.218 72.9019C161.181 72.9019 162.973 72.4966 164.594 71.6859C166.216 70.8752 167.602 69.8086 168.754 68.4859C169.906 67.1206 170.781 65.5632 171.378 63.8139C172.018 62.0646 172.338 60.2512 172.338 58.3739C172.338 55.3019 171.592 52.5499 170.098 50.1179C168.648 47.6859 166.664 45.9152 164.146 44.8059C163.89 44.7206 163.698 44.5499 163.57 44.2939C163.485 43.9952 163.506 43.7179 163.634 43.4619C163.762 43.0352 164.082 42.8219 164.594 42.8219C164.765 42.8219 164.893 42.8432 164.978 42.8859C166.429 43.5259 167.73 44.3792 168.882 45.4459C170.034 46.4699 171.016 47.6646 171.826 49.0299C172.68 50.3526 173.32 51.8032 173.746 53.3819C174.216 54.9606 174.45 56.6246 174.45 58.3739C174.45 60.5499 174.066 62.6406 173.298 64.6459C172.573 66.6512 171.549 68.4219 170.226 69.9579C168.904 71.4939 167.304 72.7312 165.426 73.6699C163.549 74.5659 161.48 75.0139 159.218 75.0139C156.957 75.0139 154.888 74.5446 153.01 73.6059C151.176 72.6672 149.576 71.4299 148.21 69.8939C146.888 68.3579 145.864 66.5872 145.138 64.5819C144.413 62.5766 144.05 60.5072 144.05 58.3739C144.05 56.3259 144.37 54.3419 145.01 52.4219C145.693 50.4592 146.653 48.7312 147.89 47.2379C149.128 45.7019 150.6 44.4432 152.306 43.4619C154.056 42.4379 155.997 41.8619 158.13 41.7339V37.1259C158.13 36.4432 158.493 36.1019 159.218 36.1019C162.248 36.1019 165.021 36.7419 167.538 38.0219C170.056 39.2592 172.232 40.9232 174.066 43.0139C175.901 45.0619 177.33 47.4299 178.354 50.1179C179.378 52.8059 179.89 55.6006 179.89 58.5019C179.89 61.4032 179.378 64.2192 178.354 66.9499C177.33 69.6379 175.901 72.0272 174.066 74.1179C172.232 76.1659 170.034 77.8086 167.474 79.0459C164.957 80.2832 162.205 80.9019 159.218 80.9019C156.189 80.9019 153.394 80.2832 150.834 79.0459C148.317 77.8086 146.141 76.1659 144.306 74.1179C142.472 72.0272 141.042 69.6379 140.018 66.9499C138.994 64.2192 138.482 61.4032 138.482 58.5019ZM152.946 37.5099C153.074 36.9979 153.437 36.7419 154.034 36.7419C154.205 36.7419 154.333 36.7632 154.418 36.8059C154.717 36.8912 154.93 37.0832 155.058 37.3819C155.186 37.6806 155.208 37.9792 155.122 38.2779C154.909 38.8326 154.546 39.1099 154.034 39.1099C153.522 38.9392 153.181 38.7259 153.01 38.4699C152.84 38.1712 152.818 37.8726 152.946 37.5739V37.5099ZM206.061 80.1339C206.061 80.8166 205.719 81.1579 205.037 81.1579C204.738 81.1579 204.482 81.0726 204.269 80.9019C204.055 80.6886 203.949 80.4326 203.949 80.1339V64.7099C203.949 64.3686 204.055 64.1126 204.269 63.9419C204.482 63.7286 204.738 63.6219 205.037 63.6219C205.719 63.6219 206.061 63.9846 206.061 64.7099V80.1339ZM209.709 53.1899V43.2059C209.709 42.9072 209.815 42.6512 210.029 42.4379C210.242 42.2246 210.498 42.1179 210.797 42.1179H222.637C222.978 42.1179 223.234 42.2246 223.405 42.4379C223.618 42.6512 223.725 42.9072 223.725 43.2059C223.725 43.8886 223.362 44.2299 222.637 44.2299H211.821V53.1899C211.821 53.8726 211.479 54.2139 210.797 54.2139C210.498 54.2139 210.242 54.1286 210.029 53.9579C209.815 53.7446 209.709 53.4886 209.709 53.1899ZM200.045 42.1179C200.343 42.1179 200.578 42.2246 200.749 42.4379C200.962 42.6512 201.069 42.9072 201.069 43.2059C201.069 43.8886 200.727 44.2299 200.045 44.2299H192.237C191.511 44.2299 191.149 43.8886 191.149 43.2059C191.149 42.9072 191.234 42.6512 191.405 42.4379C191.618 42.2246 191.895 42.1179 192.237 42.1179H200.045ZM205.997 37.5739V57.7979H210.797C211.095 57.7979 211.33 57.9046 211.501 58.1179C211.714 58.3312 211.821 58.5872 211.821 58.8859V75.2059C211.821 75.9312 211.479 76.2939 210.797 76.2939C210.498 76.2939 210.242 76.2086 210.029 76.0379C209.815 75.8246 209.709 75.5472 209.709 75.2059V59.9099H204.973C204.674 59.9099 204.418 59.8246 204.205 59.6539C203.991 59.4406 203.885 59.1846 203.885 58.8859V38.5979H192.237C191.511 38.5979 191.149 38.2566 191.149 37.5739C191.149 36.8486 191.511 36.4859 192.237 36.4859H204.973C205.655 36.4859 205.997 36.8486 205.997 37.5739ZM210.797 36.4859H219.117C219.799 36.4859 220.141 36.8486 220.141 37.5739C220.141 38.2566 219.799 38.5979 219.117 38.5979H210.797C210.498 38.5979 210.242 38.5126 210.029 38.3419C209.815 38.1286 209.709 37.8726 209.709 37.5739C209.709 37.2326 209.815 36.9766 210.029 36.8059C210.242 36.5926 210.498 36.4859 210.797 36.4859ZM223.021 36.4219C223.362 36.5072 223.597 36.6992 223.725 36.9979C223.853 37.2966 223.874 37.5952 223.789 37.8939H223.725C223.597 38.4486 223.234 38.7259 222.637 38.7259C222.167 38.5552 221.847 38.3419 221.677 38.0859C221.506 37.7872 221.463 37.4886 221.549 37.1899L221.613 37.1259C221.741 36.6139 222.103 36.3579 222.701 36.3579C222.871 36.3579 222.978 36.3792 223.021 36.4219ZM244.047 66.8859C244.047 66.2032 244.41 65.8619 245.135 65.8619C245.818 65.8619 246.159 66.2032 246.159 66.8859V79.8779C246.159 80.5606 245.818 80.9019 245.135 80.9019C244.41 80.9019 244.047 80.5606 244.047 79.8779V66.8859ZM263.759 52.2939C263.077 52.2939 262.735 51.9526 262.735 51.2699V37.7019C262.735 37.4032 262.821 37.1472 262.991 36.9339C263.205 36.7206 263.461 36.6139 263.759 36.6139C264.101 36.6139 264.357 36.7206 264.527 36.9339C264.741 37.1472 264.847 37.4032 264.847 37.7019V51.2699C264.847 51.9526 264.485 52.2939 263.759 52.2939ZM269.455 80.7099C269.157 80.7099 268.901 80.6032 268.687 80.3899C268.517 80.1766 268.431 79.9206 268.431 79.6219V42.1179C268.431 41.4352 268.773 41.0939 269.455 41.0939C269.754 41.0939 270.01 41.2006 270.223 41.4139C270.437 41.5846 270.543 41.8192 270.543 42.1179V79.6219C270.543 79.9206 270.437 80.1766 270.223 80.3899C270.01 80.6032 269.754 80.7099 269.455 80.7099ZM245.135 57.3499C244.794 57.3499 244.517 57.2432 244.303 57.0299C244.133 56.8166 244.047 56.5606 244.047 56.2619V37.6379C244.047 36.9552 244.41 36.6139 245.135 36.6139C245.818 36.6139 246.159 36.9552 246.159 37.6379V55.2379H263.759C264.485 55.2379 264.847 55.5792 264.847 56.2619V75.9739C264.847 76.2726 264.741 76.5286 264.527 76.7419C264.357 76.9552 264.101 77.0619 263.759 77.0619C263.461 77.0619 263.205 76.9552 262.991 76.7419C262.821 76.5286 262.735 76.2726 262.735 75.9739V57.3499H245.135ZM239.439 57.2859C239.141 57.2859 238.885 57.2006 238.671 57.0299C238.458 56.8166 238.351 56.5606 238.351 56.2619V37.6379C238.351 37.3392 238.458 37.1046 238.671 36.9339C238.885 36.7206 239.141 36.6139 239.439 36.6139C240.122 36.6139 240.463 36.9552 240.463 37.6379V56.2619C240.463 56.9446 240.122 57.2859 239.439 57.2859ZM239.439 80.7099C239.141 80.7099 238.885 80.6032 238.671 80.3899C238.458 80.1766 238.351 79.9206 238.351 79.6219V62.0859C238.351 61.7872 238.458 61.5312 238.671 61.3179C238.885 61.1046 239.141 60.9979 239.439 60.9979H258.703C259.002 60.9979 259.237 61.1046 259.407 61.3179C259.621 61.5312 259.727 61.7872 259.727 62.0859C259.727 62.7686 259.386 63.1099 258.703 63.1099H240.463V79.6219C240.463 79.9206 240.357 80.1766 240.143 80.3899C239.973 80.6032 239.738 80.7099 239.439 80.7099ZM264.207 78.4059C264.506 78.5339 264.719 78.7472 264.847 79.0459C264.975 79.3019 264.997 79.5792 264.911 79.8779V79.9419C264.698 80.4539 264.335 80.7099 263.823 80.7099C263.354 80.5819 263.034 80.3686 262.863 80.0699C262.693 79.7712 262.65 79.4726 262.735 79.1739C262.863 78.6192 263.226 78.3419 263.823 78.3419C263.909 78.3419 263.973 78.3632 264.015 78.4059C264.058 78.4059 264.122 78.4059 264.207 78.4059ZM317.468 76.4859V59.9099H312.668C311.985 59.9099 311.644 59.5686 311.644 58.8859V37.4459C311.644 37.1472 311.729 36.8912 311.9 36.6779C312.113 36.4646 312.369 36.3579 312.668 36.3579C312.966 36.3579 313.222 36.4646 313.436 36.6779C313.649 36.8912 313.756 37.1472 313.756 37.4459V57.7979H318.492C318.79 57.7979 319.046 57.9046 319.26 58.1179C319.473 58.3312 319.58 58.5872 319.58 58.8859V76.4859C319.58 76.7846 319.473 77.0406 319.26 77.2539C319.046 77.4246 318.79 77.5099 318.492 77.5099C317.809 77.5099 317.468 77.1686 317.468 76.4859ZM311.708 64.6459C311.708 63.9632 312.049 63.6219 312.732 63.6219C313.457 63.6219 313.82 63.9632 313.82 64.6459V80.1339C313.82 80.8166 313.457 81.1579 312.732 81.1579C312.049 81.1579 311.708 80.8166 311.708 80.1339V64.6459ZM319.58 53.1899C319.58 53.4886 319.473 53.7446 319.26 53.9579C319.046 54.1286 318.79 54.2139 318.492 54.2139C317.809 54.2139 317.468 53.8726 317.468 53.1899V42.1819C317.468 41.8832 317.553 41.6272 317.724 41.4139C317.937 41.2006 318.193 41.0939 318.492 41.0939C318.79 41.0939 319.046 41.2006 319.26 41.4139C319.473 41.6272 319.58 41.8832 319.58 42.1819V53.1899ZM318.108 81.1579C317.809 81.0726 317.596 80.8806 317.468 80.5819C317.34 80.2832 317.318 79.9846 317.404 79.6859V79.6219C317.617 79.1099 317.98 78.8539 318.492 78.8539C318.577 78.8539 318.641 78.8752 318.684 78.9179C318.726 78.9179 318.79 78.9179 318.876 78.9179C319.217 79.0032 319.452 79.1952 319.58 79.4939C319.708 79.7926 319.708 80.0912 319.58 80.3899V80.4539C319.452 80.9659 319.089 81.2219 318.492 81.2219L318.108 81.1579ZM333.045 58.5019C333.045 56.4539 333.301 54.4272 333.813 52.4219C334.367 50.4166 335.135 48.5392 336.117 46.7899C337.141 44.9979 338.378 43.3766 339.829 41.9259C341.279 40.4752 342.922 39.2806 344.757 38.3419C344.842 38.2566 345.013 38.2139 345.269 38.2139C345.653 38.2139 345.951 38.3846 346.165 38.7259C346.335 39.0246 346.357 39.3232 346.229 39.6219C346.143 39.8779 345.973 40.0699 345.717 40.1979C344.053 41.0939 342.559 42.2032 341.237 43.5259C339.914 44.8059 338.805 46.2566 337.909 47.8779C337.013 49.4566 336.33 51.1632 335.861 52.9979C335.391 54.7899 335.157 56.6246 335.157 58.5019C335.157 61.1046 335.605 63.6432 336.501 66.1179C337.439 68.5499 338.719 70.7046 340.341 72.5819C342.005 74.4592 343.967 75.9739 346.229 77.1259C348.533 78.2352 351.05 78.7899 353.781 78.7899C356.511 78.7899 359.007 78.2352 361.269 77.1259C363.53 75.9739 365.471 74.4592 367.093 72.5819C368.757 70.6619 370.037 68.4859 370.933 66.0539C371.871 63.6219 372.341 61.1046 372.341 58.5019C372.341 55.9846 371.914 53.5526 371.061 51.2059C370.207 48.8166 369.013 46.7046 367.477 44.8699C365.941 42.9926 364.085 41.4566 361.909 40.2619C359.775 39.0672 357.407 38.3846 354.805 38.2139V42.7579C354.805 43.4406 354.463 43.7819 353.781 43.7819C351.818 43.7819 350.026 44.1872 348.405 44.9979C346.783 45.8086 345.397 46.8966 344.245 48.2619C343.135 49.6272 342.261 51.1846 341.621 52.9339C341.023 54.6832 340.725 56.4966 340.725 58.3739C340.725 60.2086 341.023 62.0006 341.621 63.7499C342.261 65.4992 343.157 67.0566 344.309 68.4219C345.461 69.7872 346.826 70.8752 348.405 71.6859C350.026 72.4966 351.818 72.9019 353.781 72.9019C355.743 72.9019 357.535 72.4966 359.157 71.6859C360.778 70.8752 362.165 69.8086 363.317 68.4859C364.469 67.1206 365.343 65.5632 365.941 63.8139C366.581 62.0646 366.901 60.2512 366.901 58.3739C366.901 55.3019 366.154 52.5499 364.661 50.1179C363.21 47.6859 361.226 45.9152 358.709 44.8059C358.453 44.7206 358.261 44.5499 358.133 44.2939C358.047 43.9952 358.069 43.7179 358.197 43.4619C358.325 43.0352 358.645 42.8219 359.157 42.8219C359.327 42.8219 359.455 42.8432 359.541 42.8859C360.991 43.5259 362.293 44.3792 363.445 45.4459C364.597 46.4699 365.578 47.6646 366.389 49.0299C367.242 50.3526 367.882 51.8032 368.309 53.3819C368.778 54.9606 369.013 56.6246 369.013 58.3739C369.013 60.5499 368.629 62.6406 367.861 64.6459C367.135 66.6512 366.111 68.4219 364.789 69.9579C363.466 71.4939 361.866 72.7312 359.989 73.6699C358.111 74.5659 356.042 75.0139 353.781 75.0139C351.519 75.0139 349.45 74.5446 347.573 73.6059C345.738 72.6672 344.138 71.4299 342.773 69.8939C341.45 68.3579 340.426 66.5872 339.701 64.5819C338.975 62.5766 338.613 60.5072 338.613 58.3739C338.613 56.3259 338.933 54.3419 339.573 52.4219C340.255 50.4592 341.215 48.7312 342.453 47.2379C343.69 45.7019 345.162 44.4432 346.869 43.4619C348.618 42.4379 350.559 41.8619 352.693 41.7339V37.1259C352.693 36.4432 353.055 36.1019 353.781 36.1019C356.81 36.1019 359.583 36.7419 362.101 38.0219C364.618 39.2592 366.794 40.9232 368.629 43.0139C370.463 45.0619 371.893 47.4299 372.917 50.1179C373.941 52.8059 374.453 55.6006 374.453 58.5019C374.453 61.4032 373.941 64.2192 372.917 66.9499C371.893 69.6379 370.463 72.0272 368.629 74.1179C366.794 76.1659 364.597 77.8086 362.037 79.0459C359.519 80.2832 356.767 80.9019 353.781 80.9019C350.751 80.9019 347.957 80.2832 345.397 79.0459C342.879 77.8086 340.703 76.1659 338.869 74.1179C337.034 72.0272 335.605 69.6379 334.581 66.9499C333.557 64.2192 333.045 61.4032 333.045 58.5019ZM347.509 37.5099C347.637 36.9979 347.999 36.7419 348.597 36.7419C348.767 36.7419 348.895 36.7632 348.981 36.8059C349.279 36.8912 349.493 37.0832 349.621 37.3819C349.749 37.6806 349.77 37.9792 349.685 38.2779C349.471 38.8326 349.109 39.1099 348.597 39.1099C348.085 38.9392 347.743 38.7259 347.573 38.4699C347.402 38.1712 347.381 37.8726 347.509 37.5739V37.5099Z" fill="black"/>
<path d="M294.229 81.0299H288.277C287.551 81.0299 287.189 80.6886 287.189 80.0059V73.9899C287.189 73.3072 287.551 72.9659 288.277 72.9659H294.229C294.954 72.9659 295.317 73.3072 295.317 73.9899V80.0059C295.317 80.6886 294.954 81.0299 294.229 81.0299ZM289.301 75.0779V78.9179H293.205V75.0779H289.301Z" fill="#2C32BD"/>
<defs>
<linearGradient id="paint0_linear_8_33" x1="113.161" y1="12.6316" x2="358.768" y2="94.9352" gradientUnits="userSpaceOnUse">
<stop stop-color="#9F9F9F"/>
<stop offset="0.310129" stop-color="#8C9094" stop-opacity="0.56"/>
<stop offset="0.65752" stop-color="#5E6164" stop-opacity="0.33"/>
<stop offset="1" stop-opacity="0.19"/>
</linearGradient>
</defs>
</svg>
